<?xml version="1.0" encoding="UTF-8"?>
<svg width="106px" height="29px" viewBox="0 0 106 29" version="1.1" xmlns="http://www.w3.org/2000/svg" xmlns:xlink="http://www.w3.org/1999/xlink">
    <!-- Generator: Sketch 53.1 (72631) - https://sketchapp.com -->
    <title>Group 21</title>
    <desc>Created with Sketch.</desc>
    <g id="Page-1" stroke="none" stroke-width="1" fill="none" fill-rule="evenodd">
        <g id="Group-77" transform="translate(-171.000000, -18.000000)" fill="#FFFFFF" fill-rule="nonzero">
            <g id="Group-21" transform="translate(171.000000, 18.000000)">
                <g id="Group-74" transform="translate(36.000000, 5.000000)">
                    <g id="Group-70">
                        <polygon id="Path" points="1.738724 6.54545455 2.63612994 6.54545455 2.63612994 1.56643357 1.68263613 1.56643357 1.68263613 2.69463869 0 2.69463869 0 0 7.27272727 0 7.27272727 2.69463869 5.59009114 2.69463869 5.59009114 1.56643357 4.63659734 1.56643357 4.63659734 6.54545455 5.53400327 6.54545455 5.53400327 8 1.72937602 8 1.72937602 6.54545455"></polygon>
                        <path d="M9,6.54545455 L9.87821612,6.54545455 L9.87821612,1.45454545 L9,1.45454545 L9,0 L12.5403087,0 C13.1349342,0 13.6563751,0.0186480186 14.1137793,0.158508159 C15.056032,0.447552448 15.6781018,1.23076923 15.6781018,2.40559441 C15.6781018,3.45920746 15.1841052,4.17715618 14.406518,4.5967366 L14.406518,4.61538462 C14.406518,4.61538462 14.7175529,4.74592075 14.8913665,5.1002331 L15.4951401,6.28438228 C15.595769,6.47086247 15.7512864,6.54545455 15.9982847,6.54545455 L16.2727273,6.54545455 L16.2727273,8 L14.9736993,8 C14.3333333,8 14.086335,7.84149184 13.866781,7.4032634 L12.9153802,5.53846154 C12.787307,5.27738928 12.6409377,5.19347319 12.238422,5.19347319 L11.8450543,5.19347319 L11.8450543,6.54545455 L12.6683819,6.54545455 L12.6683819,8 L9,8 L9,6.54545455 Z M12.7324185,3.62703963 C13.3453402,3.62703963 13.7295597,3.31002331 13.7295597,2.58275058 C13.7295597,2.20979021 13.6380789,1.86480186 13.2995998,1.6969697 C13.1257862,1.6037296 12.8696398,1.56643357 12.5403087,1.56643357 L11.8359062,1.56643357 L11.8359062,3.62703963 L12.7324185,3.62703963 Z" id="Shape"></path>
                        <path d="M18,6.54545455 L18.6794258,6.54545455 L20.9186603,0 L23.2631579,0 L25.5023923,6.54545455 L26.1818182,6.54545455 L26.1818182,8 L22.7464115,8 L22.7464115,6.54545455 L23.4545455,6.54545455 L23.1483254,5.48251748 L21.0334928,5.48251748 L20.7272727,6.54545455 L21.4354067,6.54545455 L21.4354067,8 L18,8 L18,6.54545455 Z M22.6985646,3.96270396 L22.277512,2.48951049 C22.1435407,1.995338 22.1148325,1.65034965 22.1148325,1.65034965 L22.0669856,1.65034965 C22.0669856,1.65034965 22.0478469,1.995338 21.9043062,2.48951049 L21.4641148,3.96270396 L22.6985646,3.96270396 Z" id="Shape"></path>
                        <polygon id="Path" points="28 6.54545455 29.0721465 6.54545455 29.0721465 1.45454545 28 1.45454545 28 0 32.5454545 0 32.5454545 1.45454545 31.473308 1.45454545 31.473308 6.54545455 32.5454545 6.54545455 32.5454545 8 28 8"></polygon>
                        <path d="M34,6.53783469 L34.9424701,6.53783469 L34.9424701,1.45285215 L34,1.45285215 L34,0 L37.0728451,0 L39.7137247,4.23748545 C39.9100726,4.56344587 40.067151,5.05704307 40.067151,5.05704307 L40.116238,5.05704307 C40.116238,5.05704307 40.0475162,4.51688009 40.0475162,4.16298021 L40.0475162,1.46216531 L39.0559592,1.46216531 L39.0559592,0.00931315483 L43.0909091,0.00931315483 L43.0909091,1.46216531 L42.148439,1.46216531 L42.148439,8 L40.0278814,8 L37.3771844,3.79045402 C37.1808364,3.4644936 37.0237581,2.97089639 37.0237581,2.97089639 L36.9746711,2.97089639 C36.9746711,2.97089639 37.0433929,3.51105937 37.0433929,3.86495925 L37.0433929,6.54714785 L38.0349499,6.54714785 L38.0349499,8 L34,8 L34,6.53783469 Z" id="Path"></path>
                        <polygon id="Path" points="45 6.54545455 46.0721465 6.54545455 46.0721465 1.45454545 45 1.45454545 45 0 49.5454545 0 49.5454545 1.45454545 48.473308 1.45454545 48.473308 6.54545455 49.5454545 6.54545455 49.5454545 8 45 8"></polygon>
                        <path d="M51,6.53783469 L51.9424701,6.53783469 L51.9424701,1.45285215 L51,1.45285215 L51,0 L54.0728451,0 L56.7137247,4.23748545 C56.9100726,4.56344587 57.067151,5.05704307 57.067151,5.05704307 L57.116238,5.05704307 C57.116238,5.05704307 57.0475162,4.51688009 57.0475162,4.16298021 L57.0475162,1.46216531 L56.0559592,1.46216531 L56.0559592,0.00931315483 L60.0909091,0.00931315483 L60.0909091,1.46216531 L59.148439,1.46216531 L59.148439,8 L57.0278814,8 L54.3771844,3.79045402 C54.1808364,3.4644936 54.0237581,2.97089639 54.0237581,2.97089639 L53.9746711,2.97089639 C53.9746711,2.97089639 54.0433929,3.51105937 54.0433929,3.86495925 L54.0433929,6.54714785 L55.0349499,6.54714785 L55.0349499,8 L51,8 L51,6.53783469 Z" id="Path"></path>
                        <path d="M66.0600177,0 C67.4368932,0 69.1050309,0.541760722 69.1050309,1.51693002 L69.1050309,2.77200903 L67.4104148,2.77200903 L67.4104148,2.21218962 C67.4104148,1.82392777 66.8455428,1.62528217 66.157105,1.62528217 C64.7802295,1.62528217 63.9593998,2.41986456 63.9593998,3.86455982 C63.9593998,5.31828442 64.7714034,6.37471783 66.2630185,6.37471783 C66.7749338,6.37471783 67.5781112,6.25733634 67.5781112,5.81489842 L67.5781112,5.28216704 L66.3601059,5.28216704 L66.3601059,3.87358916 L69.2727273,3.87358916 L69.2727273,6.4469526 C69.2727273,7.6027088 67.1368049,8 66.0335393,8 C63.7034422,8 62,6.27539503 62,3.94582393 C62,1.61625282 63.6857899,0 66.0600177,0 Z" id="Path"></path>
                    </g>
                    <g id="Group-61" transform="translate(9.000000, 12.000000)">
                        <path d="M3.9916042,0 C4.9182266,0 7.08331549,0.306997743 7.08331549,1.5530474 L7.08331549,2.77200903 L5.37262797,2.77200903 L5.37262797,2.17607223 C5.37262797,1.74266366 4.58856286,1.62528217 4.08070251,1.62528217 C2.84223602,1.62528217 1.97798244,2.43792325 1.97798244,3.87358916 C1.97798244,5.48081264 2.9224245,6.37471783 4.18762048,6.37471783 C4.52619405,6.37471783 5.46172628,6.28442438 5.46172628,5.82392777 L5.46172628,5.22799097 L7.17241379,5.22799097 L7.17241379,6.47404063 C7.17241379,7.65688488 5.11424288,8 4.05397301,8 C1.71068751,8 0,6.248307 0,3.98194131 C0,1.67042889 1.7641465,0 3.9916042,0 Z" id="Path"></path>
                        <polygon id="Path" points="8.96551724 6.54545455 9.85676393 6.54545455 9.85676393 1.45454545 8.96551724 1.45454545 8.96551724 0 15.102122 0 15.102122 2.35897436 13.4310345 2.35897436 13.4310345 1.56643357 11.8527851 1.56643357 11.8527851 3.18881119 14.1830239 3.18881119 14.1830239 4.75524476 11.8527851 4.75524476 11.8527851 6.43356643 13.5702918 6.43356643 13.5702918 5.64102564 15.2413793 5.64102564 15.2413793 8 8.97480106 8 8.97480106 6.54545455"></polygon>
                        <path d="M17.0344828,6.53783469 L17.9639532,6.53783469 L17.9639532,1.45285215 L17.0344828,1.45285215 L17.0344828,0 L20.0649438,0 L22.6693975,4.23748545 C22.8630372,4.56344587 23.0179489,5.05704307 23.0179489,5.05704307 L23.0663588,5.05704307 C23.0663588,5.05704307 22.9985849,4.51688009 22.9985849,4.16298021 L22.9985849,1.46216531 L22.0207046,1.46216531 L22.0207046,0.00931315483 L26,0.00931315483 L26,1.46216531 L25.0705295,1.46216531 L25.0705295,8 L22.979221,8 L20.3650853,3.79045402 C20.1714456,3.4644936 20.0165338,2.97089639 20.0165338,2.97089639 L19.9681239,2.97089639 C19.9681239,2.97089639 20.0358978,3.51105937 20.0358978,3.86495925 L20.0358978,6.54714785 L21.0137782,6.54714785 L21.0137782,8 L17.0344828,8 L17.0344828,6.53783469 Z" id="Path"></path>
                        <polygon id="Path" points="29.507845 6.54545455 30.392873 6.54545455 30.392873 1.56643357 29.4525308 1.56643357 29.4525308 2.69463869 27.7931034 2.69463869 27.7931034 0 34.9655172 0 34.9655172 2.69463869 33.3060899 2.69463869 33.3060899 1.56643357 32.3657477 1.56643357 32.3657477 6.54545455 33.2507756 6.54545455 33.2507756 8 29.498626 8 29.498626 6.54545455"></polygon>
                        <polygon id="Path" points="36.7586207 6.54545455 37.6498674 6.54545455 37.6498674 1.45454545 36.7586207 1.45454545 36.7586207 0 42.8952255 0 42.8952255 2.35897436 41.2241379 2.35897436 41.2241379 1.56643357 39.6458886 1.56643357 39.6458886 3.18881119 41.9761273 3.18881119 41.9761273 4.75524476 39.6458886 4.75524476 39.6458886 6.43356643 41.3633952 6.43356643 41.3633952 5.64102564 43.0344828 5.64102564 43.0344828 8 36.7679045 8 36.7679045 6.54545455"></polygon>
                        <path d="M44.8275862,6.54545455 L45.693689,6.54545455 L45.693689,1.45454545 L44.8275862,1.45454545 L44.8275862,0 L48.3190631,0 C48.9054869,0 49.4197354,0.0186480186 49.8708306,0.158508159 C50.8000867,0.447552448 51.4135762,1.23076923 51.4135762,2.40559441 C51.4135762,3.45920746 50.9263934,4.17715618 50.1595316,4.5967366 L50.1595316,4.61538462 C50.1595316,4.61538462 50.4662763,4.74592075 50.6376925,5.1002331 L51.2331381,6.28438228 C51.3323791,6.47086247 51.4857515,6.54545455 51.7293429,6.54545455 L52,6.54545455 L52,8 L50.7188896,8 C50.0873563,8 49.8437649,7.84149184 49.6272392,7.4032634 L48.6889612,5.53846154 C48.5626545,5.27738928 48.4183041,5.19347319 48.0213403,5.19347319 L47.6333984,5.19347319 L47.6333984,6.54545455 L48.4453698,6.54545455 L48.4453698,8 L44.8275862,8 L44.8275862,6.54545455 Z M48.5085231,3.62703963 C49.1129907,3.62703963 49.4919106,3.31002331 49.4919106,2.58275058 C49.4919106,2.20979021 49.4016916,1.86480186 49.0678812,1.6969697 C48.896465,1.6037296 48.6438517,1.56643357 48.3190631,1.56643357 L47.6243765,1.56643357 L47.6243765,3.62703963 L48.5085231,3.62703963 Z" id="Shape"></path>
                    </g>
                </g>
                <g id="Page-1">
                    <g id="Program-1170">
                        <g id="Group-9">
                            <g id="Group-119">
                                <g id="Group-110">
                                    <g id="Group" transform="translate(0.000000, 0.070598)">
                                        <g id="Path" transform="translate(5.574194, 11.194853)">
                                            <path d="M9.90967742,11.9722733 C4.65135484,11.9722733 0.371612903,9.53428309 0.371612903,6.53655025 L0.371612903,0.70278799 C0.371612903,0.360723039 0.650322581,0.0808517157 0.990967742,0.0808517157 C1.3316129,0.0808517157 1.61032258,0.360723039 1.61032258,0.70278799 L1.61032258,6.53655025 C1.61032258,8.76930147 5.48748387,10.7284007 9.90967742,10.7284007 C14.331871,10.7284007 18.2090323,8.76930147 18.2090323,6.53655025 L18.2090323,0.70278799 C18.2090323,0.360723039 18.4877419,0.0808517157 18.8283871,0.0808517157 C19.1690323,0.0808517157 19.4477419,0.360723039 19.4477419,0.70278799 L19.4477419,6.53655025 C19.4477419,9.53428309 15.168,11.9722733 9.90967742,11.9722733 Z"></path>
                                        </g>
                                        <g transform="translate(5.574194, 13.060662)" id="Path">
                                            <path d="M9.90967742,6.23180147 C4.65135484,6.23180147 0.371612903,3.78137255 0.371612903,0.77120098 C0.371612903,0.429136029 0.650322581,0.149264706 0.990967742,0.149264706 C1.3316129,0.149264706 1.61032258,0.429136029 1.61032258,0.77120098 C1.61032258,3.01639093 5.48748387,4.98792892 9.90967742,4.98792892 C14.331871,4.98792892 18.2090323,3.01639093 18.2090323,0.77120098 C18.2090323,0.429136029 18.4877419,0.149264706 18.8283871,0.149264706 C19.1690323,0.149264706 19.4477419,0.429136029 19.4477419,0.77120098 C19.4477419,3.78137255 15.168,6.23180147 9.90967742,6.23180147 Z"></path>
                                        </g>
                                        <g id="Path">
                                            <path d="M15.4714839,14.453799 C14.5672258,14.453799 13.6691613,14.2920956 12.8268387,13.9624694 L0.829935484,9.50940564 C0.377806452,9.37879902 0.0371612903,8.94966299 0.00619354839,8.42723652 C-0.0247741935,7.91102941 0.253935484,7.44457721 0.724645161,7.23933824 L13.5824516,1.01375613 C14.7778065,0.491329657 16.0722581,0.491329657 17.2428387,1.0013174 L30.2926452,7.32640931 C30.7447742,7.55652574 31.0049032,8.04785539 30.9553548,8.5640625 C30.9058065,9.06783088 30.5899355,9.45965074 30.1192258,9.59647672 L29.2645161,9.8825674 C28.9362581,9.99451593 28.5894194,9.81415441 28.4779355,9.49074755 C28.3664516,9.16734069 28.539871,8.81283701 28.868129,8.70088848 L29.6794839,8.42723652 L16.7225806,2.12702206 C15.8740645,1.76007966 14.9574194,1.76007966 14.0903226,2.13946078 L1.23870968,8.37748162 L13.2603871,12.8056679 C14.6725161,13.3529718 16.2580645,13.3529718 17.7383226,12.8056679 L24.6193548,10.2806066 C24.9414194,10.1624387 25.2944516,10.3303615 25.412129,10.6537684 C25.5298065,10.9771752 25.3625806,11.3316789 25.0405161,11.4498468 L18.1594839,13.9749081 C17.2861935,14.2920956 16.3757419,14.453799 15.4714839,14.453799 Z"></path>
                                        </g>
                                        <g transform="translate(26.012903, 19.901961)" id="Shape">
                                            <path d="M3.34451613,3.42686887 L1.19535484,3.42686887 C0.854709677,3.42686887 0.576,3.14699755 0.576,2.8049326 L0.576,1.82849265 C0.576,0.88314951 1.35019355,0.0808517157 2.26683871,0.0808517157 C3.18348387,0.0808517157 3.95767742,0.88314951 3.95767742,1.82849265 L3.95767742,2.8049326 C3.96387097,3.14699755 3.68516129,3.42686887 3.34451613,3.42686887 Z M1.81470968,2.18299632 L2.72516129,2.18299632 L2.72516129,1.82849265 C2.72516129,1.57349877 2.50219355,1.32472426 2.27303226,1.32472426 C2.04387097,1.32472426 1.82090323,1.57349877 1.82090323,1.82849265 L1.82090323,2.18299632 L1.81470968,2.18299632 Z"></path>
                                        </g>
                                        <g transform="translate(25.393548, 21.145833)" id="Shape">
                                            <path d="M0.823741935,7.50677083 C0.693677419,7.50677083 0.563612903,7.46945466 0.458322581,7.38860294 C0.272516129,7.25177696 0.179612903,7.0278799 0.210580645,6.79776348 L1.04670968,0.988878676 C1.09006452,0.684129902 1.35019355,0.45401348 1.65987097,0.45401348 L3.87096774,0.45401348 C4.15587097,0.45401348 4.40980645,0.653033088 4.47174194,0.932904412 L5.3883871,4.8075674 C5.45651613,5.09365809 5.32025806,5.38596814 5.05393548,5.51035539 L1.09006452,7.44457721 C1.00954839,7.48811275 0.916645161,7.50677083 0.823741935,7.50677083 Z M2.19870968,1.69788603 L1.60412903,5.81510417 L4.06916129,4.60854779 L3.38167742,1.69788603 L2.19870968,1.69788603 Z"></path>
                                        </g>
                                        <g transform="translate(13.625806, 6.841299)" id="Path">
                                            <path d="M13.7496774,14.3916054 C13.4090323,14.3916054 13.1303226,14.1117341 13.1303226,13.7696691 L13.1303226,3.41443015 L0.786580645,1.79739583 C0.445935484,1.75386029 0.210580645,1.44289216 0.253935484,1.10082721 C0.297290323,0.758762255 0.61316129,0.522426471 0.947612903,0.56596201 L13.8301935,2.25140931 C14.139871,2.28872549 14.3690323,2.55615809 14.3690323,2.86712623 L14.3690323,13.7634498 C14.3690323,14.1117341 14.0903226,14.3916054 13.7496774,14.3916054 Z"></path>
                                        </g>
                                    </g>
                                </g>
                            </g>
                        </g>
                    </g>
                </g>
            </g>
        </g>
    </g>
</svg>